<svg viewBox="0 0 121.02 114.19" xmlns="http://www.w3.org/2000/svg"><path d="M25.655 95.678h-6.3s-7.856.557-8.283-7.658 0-15.3 0-15.3l2.62-3.635h9.2l17.275-11.463h30.184s15.125 5.938 19.2 11.463 18.869-5.936 31.1 12.553c.033 5.047.03 14.053.03 14.053h.347l-14.724-.012" fill="#94ccd2"/><path d="M90.877 3.173V-.001h10.891V28.81H90.877v-3.457h-6.8l-12.43-11.686" fill="#94ccd2"/><g fill="none" stroke="#646086" stroke-width="5"><ellipse cx="26.351" cy="102.639" rx="9.05" ry="9.05"/><ellipse cx="89.006" cy="102.639" rx="9.05" ry="9.05"/><path d="M79.956 102.64H35.567"/><path d="M17.301 102.639h-6.3s-7.856.557-8.283-7.658 0-15.3 0-15.3l2.62-3.635h9.2l17.275-11.463h30.184s15.125 5.938 19.2 11.463 18.869-5.936 31.1 12.553c.033 5.047.03 14.053.03 14.053h.347l-14.724-.012"/><path d="M9.442 68.06v-7.613s2.988-10.672 11.825-10.643 30.519 0 30.519 0 5.731-1.73 5.5-7.395a8.436 8.436 0 0 0-5.5-7.428H31.95a6.782 6.782 0 0 1-5.831-7.152 7.168 7.168 0 0 1 5.831-7.359h32.455l8.779-11.088h11.509"/><path d="M82.523 10.136V6.962h10.891v28.811H82.523v-3.457h-6.8L63.293 20.63"/><path d="M26.351 76.482l4.971 4.119h41.749"/><path d="M93.417 13.31h16.9"/><path d="M93.417 28.161h16.9"/><path d="M81.561 16.077v9.1"/></g></svg>