<svg viewBox="0 0 108.041 118.599" xmlns="http://www.w3.org/2000/svg"><path d="M44.933 80.176v-7.4s-.488-5.494-2.773-8.457S28.818 49.661 29.078 34.76a36.821 36.821 0 0 1 9.292-23.918s7.8-9.164 22.473-9.516" fill="#fcdd86"/><path d="M60.382 1.328c15.645.352 23.966 9.516 23.966 9.516a35.8 35.8 0 0 1 9.91 23.918c.277 14.9-11.514 26.594-13.951 29.559s-2.958 8.457-2.958 8.457v7.4H44.014" fill="#fcdd86"/><g fill="none" stroke="#646086" stroke-width="5"><path d="M34.185 90.09h38.133"/><path d="M34.185 101.228h38.133"/><path d="M16.601 77.589l4.525-4.217"/><path d="M2.39 54.361l6.027-1.387"/><path d="M2.556 26.468l5.695 2.42" stroke-width="5.0026"/><path d="M15.499 3.03l4.87 3.81"/><path d="M91.171 1.858l-4.453 4.293" stroke-width="5.0007"/><path d="M105.309 25.227l-5.812 2.112"/><path d="M105.693 53.532l-5.652-2.52" stroke-width="5.0028"/><path d="M92.095 77.168l-4.446-4.301" stroke-width="5.00175"/><path d="M53.252 75.018s-12.347-16.1 1.841-42.449"/><path d="M48.27 58.981s-10.192-3.184-10.575-10.7.53-12.668 5.481-16.295 14.1-13.73 14.011-15.352 14.719 8.7 12.848 24.8-14.469 15.953-14.469 15.953"/><path d="M44.229 109.4l8.79 6.117 8.175-6.117"/><path d="M36.579 83.891v-7.4s-.488-5.494-2.773-8.457-13.342-14.658-13.082-29.559a36.821 36.821 0 0 1 9.292-23.918s7.8-9.164 22.473-9.516"/><path d="M68.995 83.891v-7.4s.52-5.494 2.957-8.457 14.229-14.658 13.951-29.559a35.8 35.8 0 0 0-9.91-23.918s-8.321-9.164-23.966-9.516"/></g></svg>