<svg xmlns="http://www.w3.org/2000/svg" viewBox="0 0 130.398 109.765"><defs><style>.a{fill:#94ccd2}.b{fill:none;stroke:#646086;stroke-linejoin:round;stroke-width:5px}</style></defs><path class="a" d="M71.903 20.684l-8.969 11.725-16.739-11.725L61.718 0h28.271l10.606 16.055 5.507-3.777-6.342 25.141-24.095-7.045 5.234-3.471L66.837 3.544"/><path class="a" d="M100.066 62.3l-6.14-13.424 18.21-9.275 10.974 23.416-13.272 24.962-19.154 1.827.75 6.636-19.221-17.401 17.533-17.967.608 6.25 27.225-1.45"/><path class="a" d="M50.073 67.857l14.757.365.354 20.433-25.857-.401L22.71 65.382l6.753-18.017-6.292-2.235 24.066-9.647 8.462 23.635-5.885-2.194L39.183 82.03"/><path class="b" d="M62.156 24.861l-8.969 11.725-16.739-11.725L51.971 4.177h28.271l10.606 16.055 5.507-3.777-6.342 25.141-24.095-7.045 5.234-3.471L57.09 7.721"/><path class="b" d="M90.32 66.478l-6.14-13.425 18.21-9.275 10.974 23.416-13.272 24.962-19.154 1.827.75 6.636-19.221-17.401L80 65.25l.608 6.25 27.225-1.45"/><path class="b" d="M40.327 72.035l14.757.365.354 20.433-25.857-.401L12.964 69.56l6.753-18.017-6.292-2.235 24.066-9.647 8.462 23.635-5.885-2.194-10.631 25.106"/></svg>