<svg viewBox="0 0 120.376 114.934" xmlns="http://www.w3.org/2000/svg"><path d="M20.575 24.663l-3.57 2.691v25.828l2.841 4.27h11.7l4.515 26.221 11.49-7.35-1.537-18.871h17.173s43.383 24.078 43.479 24.285 8.858 0 8.858 0l-.748-81.738h-8.11S80.133 24.933 53.198 25.452s-32.623-.789-32.623-.789z" fill="#fcdd86"/><g fill="none" stroke="#646086" stroke-width="5"><path d="M22.759 67.578s2.956 44.527 10.971 44.746 14.116 0 14.116 0l2.453-3.969-6.083-9.152-1.578-31.625H14.272l-2.8-2.293V37.547l2.8-2.672h33.573l.118.93 3.815 29.953s39.743 13.143 49.425 26.477" stroke-linejoin="round"/><path d="M47.807 34.874s36.4-7.115 53.334-24.23"/><path d="M100.892 10.39h8.354v82.148h-8.354zM2.5 41.951h8.354v16.708H2.5z" stroke-linejoin="round"/><path d="M109.246 38.246s8.584 2.754 8.629 13.25-8.629 11.691-8.629 11.691"/></g></svg>