<svg xmlns="http://www.w3.org/2000/svg" viewBox="0 0 327.5 320.7"><defs><style>.cls-1{fill:#fff}</style></defs><g id="Groupe_1" data-name="Groupe 1" transform="translate(-.7 .8)"><path id="Tracé_4" data-name="Tracé 4" class="cls-1" d="M128.7 258.1l-6.2-2.6c-.4-.2-.6 0-.7.4l-.5 1L99 304.6l-.4 1c-.2.3-.4.5-1 .3-.5-.3-.5-.6-.2-1l5-10.7 17.7-38.1c.7-1.6 1-1.4-.7-2.2l-4.1-2.2c-1-.5-1-.5-1.7.5l-7.6 13.2-19 33a6.7 6.7 0 0 0-.5.8c-.3.5-.5.6-1 .3-.4-.3-.5-.5-.3-1l.7-1 26.4-45.7s0-.2.2-.3c.6-1 .6-1-.5-1.7l-4.4-2.8c-.6-.4-1-.4-1.4.3l-3 4.2-27.7 39.7a4.8 4.8 0 0 1-1 1.2 1.5 1.5 0 0 1-.9-.7 5 5 0 0 1 1-1.5l30.1-43.1.5-.8c.5-.4.3-.8-.2-1.1l-4.3-3.3c-.8-.7-.8-.7-1.6.2l-8.5 10.2-26 31-.5.5c-.3.4-.6.3-1 0-.2-.3-.4-.5 0-.9a9.1 9.1 0 0 0 .6-.8l34-40.5 1-1.3-5.6-5.2a13.1 13.1 0 0 1-1 1.5l-37.2 37.1-.7.8c-.4.4-.7.5-1.1 0-.5-.5-.3-.7.1-1l.7-.8 37.2-37.2 1.2-1.3-4.5-5c-.3-.3-.6-.3-1 0l-.6.6-40.7 34.1a6.5 6.5 0 0 0-.7.6c-.3.4-.6.2-.9-.1-.4-.4-.2-.7.1-1l6.8-5.7 35-29.3.7-.7-2-2.6-2-2.7c-.3-.5-.6-.5-1-.2l-1 .7c-14.3 10-28.7 20-43 30.2a2.1 2.1 0 0 1-.6.3c-.8.6-1 .6-1.5-.6l45.8-32.2-3.5-5.7a.6.6 0 0 0-1-.2c-.3.1-.7.3-1 .6L30 241.6l-.8.5c-.3.2-.6.3-.9-.2-.2-.3-.3-.6.1-1a9.2 9.2 0 0 0 1-.6L75.3 214c1.7-.9 1.5-.6.6-2.2l-2.1-4.2c-.5-1-.5-1-1.5-.5l-16.5 7.7L24 229.6l-.7.3c-.5.2-.9.4-1.2-.3s.1-.8.6-1l4.2-1.9L71.2 206c1.8-.8 1.5-.4.8-2.2l-1.7-4.2c-.5-1.3-.5-1.1-1.6-.7L48 206.4l-29.3 10.7-1 .4c-.5.2-.7 0-.9-.5 0-.4 0-.7.4-.8a8.2 8.2 0 0 0 1.1-.4l49.5-18 1.6-.6a33 33 0 0 0-1.1-3.5l-.6-1.8c-.6-2.2-.4-1.8-2.3-1.3l-50.8 13.6-1 .3c-.4 0-.7 0-.7-.5-.1-.3-.2-.8.3-.9l4.4-1.2 47.8-12.8.8-.2c.5-.1.6-.3.5-1l-1.2-5.4c-.2-1-.2-1-1.3-.9l-9.1 1.6-29.3 5.2-14.1 2.5-1.2.2c-.4 0-.6-.2-.6-.6s0-.7.4-.7l4-.8 34.7-6c4.8-1 9.5-1.7 14.2-2.5l1.3-.3c.5 0 .5-.3.4-.7l-.7-6c-.1-.5-.4-.7-.9-.6l-5.3.4-15.3 1.4-15.2 1.3-15 1.3-3.6.3c-.4 0-.8 0-.9-.5s.2-.8.8-.8l4-.4 26.4-2.3c7.3-.6 14.5-1.2 21.8-2l2-.1c.7 0 1-.3 1-1l-.3-5.7c0-.5-.2-.8-.8-.8H9c-.6 0-.9.2-1.2.8a3.5 3.5 0 0 1-3.3 2.3 3.7 3.7 0 0 1-3.9-3 3.9 3.9 0 0 1 2.4-4.3 3.6 3.6 0 0 1 4.6 1.7 1.8 1.8 0 0 0 2 1.1H62c1.8 0 1.5.2 1.6-1.6l.3-4.5c0-1.2 0-1.3-1.2-1.4l-7.8-.7-18.8-1.6-14.7-1.3-12.5-1c-.4-.2-.9 0-.8-.8s.4-.7 1-.6l9.4.8 15.4 1.3c5 .4 10.1 1 15.2 1.3l14 1.3c.7 0 1-.1 1.1-1l.7-5.2c.2-1.2.2-1.2-1-1.4l-7-1.2-31-5.5-14.1-2.5-1.2-.3c-.6 0-.8-.2-.7-.8s.4-.7.9-.6l9.8 1.7 29.2 5.2 14.1 2.5c1.4.2 1.4.2 1.7-1l1-5c.2-.8.1-1.1-.7-1.3l-14-3.7-37.6-10.1-.8-.2c-.5-.1-.9-.3-.7-1 .2-.6.6-.5 1-.4l4.6 1.3L65.7 136a4.5 4.5 0 0 1 .9.2c.4.2.6 0 .7-.4l1.9-5.9c.2-.6-.2-.7-.6-.9l-7.2-2.6-43-15.7c-.3 0-.7-.3-1-.4-.6-.1-.8-.4-.6-1 .2-.5.5-.5 1-.3l1 .3 49.5 18 .7.4c.5.2.8 0 1-.5l2.4-5.5c.3-.5 0-.8-.4-1l-1.2-.5-47.4-22.1-1-.5c-.5-.1-.6-.4-.4-1 .3-.5.7-.4 1-.2l16.5 7.7 32.2 15 .9.4c.4.2.6.1.8-.3 1-2 2-4 3.2-6l-1.4-.8L29.7 86a6.7 6.7 0 0 0-.9-.5c-.5-.2-.8-.5-.4-1.1.4-.6.7-.4 1-.1l1.4.7L76 111.2c1.5 1 1.2 1 2.2-.5l2.6-4c.6-1 .6-1-.3-1.5l-12.7-9-31-21.6a5.5 5.5 0 0 0-.9-.7c-.4-.3-.4-.6-.1-1 .3-.4.6-.3 1 0l1.2.8 42.8 30 1.4.8a430 430 0 0 1 4.2-5.4.5.5 0 0 0-.1-.7l-.7-.6-40.5-34-.7-.6c-.4-.3-.7-.7-.2-1.1s.8-.2 1.1 0l9.4 8 31.8 26.6c1.3 1.1 1 1.2 2.2-.1l3.4-3.7c.5-.5.5-.8 0-1.3l-3-3L54.4 54l-.9-.9c-.4-.3-.4-.6 0-1 .3-.3.6-.5 1 0a11.3 11.3 0 0 0 .8.8L92.4 90a4.1 4.1 0 0 0 1.3 1.2l5.3-4.9a3 3 0 0 0-.9-1.2l-34-40.6-.7-.8a.6.6 0 0 1 0-1c.4-.3.8-.4 1 .1l.6.7L99 83.8l.5.6c.9 1 .8.9 1.8.2a191 191 0 0 1 4.2-3.2c.5-.4.7-.7.3-1.2a11.5 11.5 0 0 1-.8-1.1L75 36a7.4 7.4 0 0 0-.6-.8c-.3-.5-.2-.7.2-1 .4-.2.7-.2 1 .2a7.4 7.4 0 0 0 .6.8l30.1 43 .5.8c.6.9.6.9 1.6.3l4.3-2.7c1.1-.7 1-.6.4-1.7L99.4 51.5 86.4 29 86 28c-.2-.4-.2-.7.3-1 .4-.2.7-.2.9.3a9.2 9.2 0 0 0 .6 1l26.2 45.5.4.6c.5 1 .5 1 1.5.4l4.3-2.2c1.5-.8 1.3-.6.7-2-1.9-3.9-3.8-7.9-5.6-12l-16.8-36-.5-1a.6.6 0 0 1 .3-.9c.4-.2.7-.1 1 .3 0 .3.2.6.4 1l22.2 47.5c0 .3.1.4.3.7.5 1 .5 1 1.5.7l4.8-2c1-.4 1-.4.6-1.5L123.4 52l-12.7-34.8a2.2 2.2 0 0 0-.3-.7.7.7 0 0 1 .4-1c.6-.3.8 0 1 .6l2.9 8.1L130 66.3l.2.7c.4 1 .4 1 1.4.7l4.9-1.5c1.1-.4 1.1-.4.8-1.6l-6-22.8-7.8-28.8-.2-.8c-.1-.6.2-.7.6-.8a.5.5 0 0 1 .8.4l.2 1 13.7 51 .2.8c.1.7.5.9 1.2.7l5.4-1.2c.7 0 .9-.4.8-1-.7-3.2-1.1-6.4-1.7-9.6L139.7 26c-1-5.3-2-10.5-2.8-15.9l-.2-1c0-.5.2-.7.6-.7.5 0 .7.2.7.5l.6 3.5 7.2 40.8 1.6 9.4c.2.8.5 1 1.2.9l5.3-.7c1-.1 1-.2 1-1.3l-.7-8.5-1.4-15.2-1.6-19-1-10.9a3 3 0 0 0 0-.7c0-.4.1-.7.5-.7.5 0 .8.1.8.6.2 1.3.3 2.5.3 3.8l2.4 26.5 1.9 21.9.2 2.3c0 .6.2 1 .9.9 1.8-.3 3.7-.2 5.5-.3.8 0 1.1-.2 1-1V7.8a1.1 1.1 0 0 0-.8-1.3 3.5 3.5 0 0 1-2.3-3.5 3.7 3.7 0 0 1 3.2-3.7 3.9 3.9 0 0 1 4.1 2.2 3.5 3.5 0 0 1-1.4 4.6c-1.3.6-1.4 1.4-1.4 2.6v51.7c0 2-.2 1.8 1.8 1.8l4.5.2c1 0 1 0 1.2-1l.6-7.2 1.7-19.5 1.6-18.4.8-8.9c0-.4 0-.8.5-.8s.9.2.8.9l-.5 6.4-1.4 15.3-1.6 18.7-1.2 13.8c-.1.7 0 1 .7 1l5.7.8c.9.1 1-.4 1-1L183 54l5.4-30.8 2.2-12.7.3-1.5c0-.5.3-.6.8-.5.5 0 .7.3.5.8l-.8 4.7-8 44.8-.7 4c-.1 1.1-.1 1.1 1 1.4l5 1c1.1.4 1.1.4 1.5-.9l5.1-19.1 8.7-32.3c0-.4.1-.8.3-1.1a.4.4 0 0 1 .6-.3c.3 0 .7.2.7.6a9.8 9.8 0 0 1-.4 1.3l-13.6 50.8-.4 1.6a2.1 2.1 0 0 0 1.1.5l4.4 1.4c1.6.4 1.5.9 2.1-1l5-13.8 13.1-36 .2-.5c.4-1 .4-1 1.6-.3l-4.1 11.3-14.4 39.6-.3.8c-.3.7-.2 1 .5 1.3l5 2c1 .5 1 .5 1.5-.6L213 57 229.3 22a3.3 3.3 0 0 0 .3-.7c.2-.5.5-.8 1.1-.5s.4.7.2 1.1c-2 4-3.7 8.1-5.6 12.2l-17.1 36.5-.6 1.4c1.2.8 2.4 1.3 3.6 2l1.8 1c1.1.6 1.1.6 1.7-.5l13.8-24c4.3-7.3 8.6-14.7 12.8-22.2l.4-.6c.3-.5.4-.9 1.1-.4.6.3.4.6.1 1 0 .3-.3.6-.4.8l-26.4 45.7c-1 1.6-1 1.3.5 2.3 1.4.9 2.8 1.7 4 2.6.7.5 1 .4 1.5-.2l7.1-10.2 23.5-33.5a5.5 5.5 0 0 0 .7-1c.3-.4.5-.4 1-.1.4.3.4.5 0 1l-1.9 2.7-28.9 41.3c-1 1.6-1 1.2.4 2.4l3.7 2.8c.9.7.9.7 1.6-.2l10.3-12.2 24.1-28.8.6-.7c.3-.4.6-.3 1 0 .3.3.4.5 0 .9-.3.4-.6.9-1 1.2l-33.7 40.1a6.5 6.5 0 0 1-.5.7c-.4.4-.4.7 0 1.1l4.4 4c.5.5.8.3 1.2 0l.7-.8 37.1-37 1-1c.3-.4.6-.2.9.1s.3.6 0 .9a11.3 11.3 0 0 0-.9.8l-37.2 37.3-.2.2c-1 1-1 .9 0 2l3 3.3c1.1 1.2 1 1.2 2.1.2l18.2-15.3 22.6-19a6.5 6.5 0 0 0 .7-.5c.3-.3.6-.2 1 .2a.6.6 0 0 1-.1 1l-1.4 1L243.4 98l-.5.4c-.8.7-.8.7-.2 1.5l3.3 4.1c.6.8.5 1 1.6.3l14.3-10 29.3-20.6.7-.5c.4-.3.8-.5 1.2 0 .4.6 0 .9-.3 1.1a7.4 7.4 0 0 0-.9.6L249 105c-1.4 1-1.4 1-.5 2.3l2.5 4c.5.9.6.9 1.6.3l15.6-9L298.6 85l1-.5c.4-.3.6 0 .9.3.2.4.2.6-.2.9a9.2 9.2 0 0 0-1 .6l-45.7 26.3-.7.4c-.8.3-.7.8-.3 1.4.9 1.5 1.7 3.1 2.4 4.6.5 1 .5 1 1.6.5l13.5-6.3L305 97a6.2 6.2 0 0 0 1-.5c.4-.2.7 0 .9.4a.6.6 0 0 1-.4 1l-2.3 1-46.4 21.7a4 4 0 0 0-1.4.8l2.4 5.9c.3.6.6.7 1.1.5l6.5-2.4 43.8-16 1-.3c.6-.3.7 0 1 .4.1.5 0 .7-.5.8l-9.4 3.5-41 14.9-.7.2c-1 .4-1 .4-.6 1.5l1.5 4.9c.3 1 .3 1 1.4.8l14.9-4 36.9-9.9 1-.2c.3 0 .4.3.5.5.1.3.1.6-.2.8l-1.3.3-50.8 13.7c-1.7.4-1.7.4-1.4 2.2l1 4.4c.3 1.1.3 1.1 1.4 1l21.7-4 27.5-4.7 4.1-.8c.6-.1.8.1 1 .6 0 .6-.2.7-.7.8l-9.6 1.7-29.2 5.1-14.1 2.5-1 .2c-.4 0-.5.3-.5.7l.8 6.2c0 .6.6.6 1 .5l7.3-.7 15.3-1.3 15.2-1.4 16.2-1.4c.4 0 .7-.2 1 .2a.7.7 0 0 1-.6 1.1l-4.6.4-18.4 1.6-18.4 1.7-11.7 1h-1c-1.1.1-1.1.2-1 1.3a51 51 0 0 1 .2 5.3c0 .6.1 1 .9 1h53.4c.7 0 1.1-.2 1.4-1a3.7 3.7 0 0 1 4.3-2 3.8 3.8 0 0 1 3 3.6 3.9 3.9 0 0 1-2.7 3.6 3.7 3.7 0 0 1-4.3-1.6c-.2-.2-.3-.3-.3-.5-.2-.7-.7-.8-1.3-.8H267.4c-2.5 0-2-.3-2.1 2l-.2 4.3c0 1 0 1 1 1.1l12.7 1.2 15.2 1.4 14.7 1.2 11.1 1a3 3 0 0 1 .8.1c.3.1.4.3.4.7a.6.6 0 0 1-.6.7l-1.9-.1-15.8-1.4-18.4-1.7-14.9-1.3-3.7-.3a.7.7 0 0 0-.8.7l-.7 5.8c-.2.7.2.8.7 1l9.6 1.6 29.3 5.2 14 2.5c.3 0 .6 0 1 .2.4 0 .5.3.4.7-.1.4-.3.6-.7.5l-1.2-.1-31-5.5-20.8-3.7c-1.7-.3-1.7-.3-2 1.3l-1.1 4.4c-.3 1.2-.3 1.2.9 1.5l16.3 4.4 35.4 9.5a3.8 3.8 0 0 0 .6.2c.5 0 .8.2.6.8-.1.4-.4.7-1 .5l-7.6-2-44.3-12a4.5 4.5 0 0 1-.9-.2c-.5-.2-.8 0-1 .6l-1.7 5.5c-.3.8.2 1 .7 1.1l9 3.3 41.3 15 1 .4a.5.5 0 0 1 .3.8c-.2.4-.3.6-.8.5l-1-.4-49.4-18c-2-.7-1.7-.9-2.5 1-.5 1.4-1 2.8-1.7 4.1-.4 1.1-.5 1.1.6 1.6l17.6 8.2 30.7 14.3 1 .5c.4.2.4.5.3.8-.2.3-.4.6-.8.5l-1-.5-47.6-22.2-.7-.3c-1.2-.6-1-.7-1.7.6l-2.3 4.4c-.6 1-.6 1 .4 1.6l17.2 10 29 16.6a6.7 6.7 0 0 0 .9.5c.4.3.5.5.3 1-.3.3-.5.5-1 .2l-1-.6-45.5-26.3-.3-.1c-1.2-.8-1.1-1-2 .4-.7 1.4-1.6 2.7-2.4 4-.7 1.1-1 1 .4 2l18.4 12.8 25.1 17.6a6.5 6.5 0 0 1 1.3 1c-.6 1.1-.6 1.1-1.8.4l-34-23.9-10-7c-.9-.6-.9-.6-1.5.3l-3.1 4.1c-.7 1-.8 1 .2 1.7l9.8 8.2 31.3 26.3.9.7c-.8 1.4-1 1-1.7.3l-34.6-29-7.5-6.2-4.6 5a.5.5 0 0 0 0 .8 11.3 11.3 0 0 1 .8.9l37.1 37.2.9.8c.4.3.4.6 0 1s-.6.4-1 0a11.3 11.3 0 0 0-.8-.8l-37-37-.7-.7c-.8-.7-.8-.7-1.6 0l-3.8 3.5c-.8.8-.8.8-.1 1.6l7.8 9.4 26.6 31.6.6.7c.2.3.3.6 0 .9-.3.2-.6.5-1 0l-.7-.9-34-40.5c-1-1.2-1-1.2-2.3-.2l-4.5 3.5 1 1.5c10 14.4 20 28.7 30.2 43a7.4 7.4 0 0 0 .6.9c.3.4.3.7-.2 1.1-.4.3-.7.2-1-.2a7.4 7.4 0 0 0-.6-.9L223 247.4c-1-1.4-1-1.4-2.5-.4l-4.1 2.6c-.5.3-.6.5-.3 1a6.7 6.7 0 0 1 .5 1l26.3 45.5a4.1 4.1 0 0 0 .5.9c.4.5.2.7-.2 1-.5.3-.8.2-1-.3a9.2 9.2 0 0 0-.6-1l-26.2-45.5c-1-1.8-.7-1.6-2.4-.7l-3.8 2c-1.4.7-1.2.5-.7 1.8l7.8 16.7 14.7 31.6a6.2 6.2 0 0 0 .4.9c.3.5 0 .7-.4.8s-.6.2-.8-.3l-.5-1.2-22.3-47.7-.7-1.4-3.8 1.6-1.6.7c-1.4.5-1.4.5-1 2l18 49.4.4 1c.3 1 .3 1-1 1.3l-3.3-9-15.4-42.2-.2-.7c-.2-.7-.6-.7-1.1-.5l-5.3 1.7c-.8.2-.9.5-.7 1.2l4 15 9.9 36.8a6.5 6.5 0 0 1 .2 1.1c0 .5-.2.5-.5.6s-.6.1-.8-.3l-.3-1.2-13.7-50.8c-.5-1.8-.5-1.8-2.2-1.4l-4.3 1c-1.1.2-1.2.2-1 1.2l1.8 10.3 5.2 29 2.4 14c0 .5.3 1-.5 1.1-.4 0-.7 0-.8-.5l-.7-4.4-8.7-49c-.2-1.2-.2-1.2-1.4-1.1l-5.1.6c-1 .1-1 .2-1 1l1.3 13.8c.4 5 1 10.2 1.3 15.2l1.7 19 .5 6.3c.1.5.1.8-.5.9-.8.1-.7-.4-.8-1l-.8-8.8-1.7-19.2-1.6-18.3-.7-7.5c-.1-1.1-.1-1.1-1.2-1l-5.4.2c-.7 0-1 .2-.9.8v54.7c0 .5-.2.7-.6.7s-.8-.2-.8-.7v-53.8c0-2.2.1-1.7-1.9-1.9l-4.4-.2c-1 0-1.1 0-1.2 1l-1.4 16.8-2 21.7-1.3 14.8v1c0 .5-.3.6-.7.6s-.7-.2-.7-.8a3 3 0 0 1 0-.7l1.7-18.1 1.3-14.6 1.6-19 .1-2.1c0-.6 0-1-.8-1l-5.5-.7c-.8 0-1 .1-1.1.9l-2.3 13-5.4 30.9-1.7 9.4c0 .4 0 .8-.5 1a.7.7 0 0 1-.9-1l.7-4 5.8-32.7 2.8-16c.4-1.8.4-1.8-1.6-2.3l-4.1-.9c-1.2-.2-1.2-.2-1.6 1l-2.3 8.8-11.5 43-.2.8c-.2.5-.5.4-.8.3-.4-.1-.7-.2-.5-.7l.3-1.1 13.6-50.9.2-.7c.3-1 .3-1-.8-1.4l-5-1.5c-1-.3-1-.4-1.4.7l-4.7 13-13.6 37.3-.3.9c-.2.4-.4.5-1 .4s-.5-.5-.3-1l2.6-7.2 15.8-43.4c-.5.2-.3-.2-.3-.8zM175.1 142v15.5c0 .5.2.7.7.7h8.5c2.9-.2 4.3-1.8 4.5-4.7v-19-3.3c-.2-3.4-2-5.2-5.3-5.5a14.4 14.4 0 0 0-1.6 0h-5c-1.9 0-1.8-.2-1.8 1.7V142zm-8.4 2v-12.4a10.7 10.7 0 0 0-.3-2.4 4 4 0 0 0-3.6-3.3 22.1 22.1 0 0 0-5.7 0 4 4 0 0 0-3.8 3.7 20.8 20.8 0 0 0-.2 2.7v23.5c0 .8-.4 1.8.2 2.2s1.5.2 2.3.2c2 0 1.7.3 1.8-1.7v-8.8c0-1.3 0-1.3 1.3-1.3h2.5c1.1 0 1.2 0 1.2 1v7.7c0 1-.4 2.2.2 2.8.7.8 2 .3 3 .3 1.1 0 1.1 0 1.1-1.2v-13zm-57-.3V156c0 2.2 0 2.2 2.2 2.2 2 0 2 0 2-2.1v-8c0-2 0-1.8 1.9-1.8h1.5c1.8 0 1.6 0 1.6 1.6v9.2c0 .8.2 1.1 1 1h2c1.4 0 1.4 0 1.4-1.2v-25.8a7.4 7.4 0 0 0-.3-2.3 4 4 0 0 0-3.3-3 21.7 21.7 0 0 0-6.3 0 4 4 0 0 0-3.4 3 9.2 9.2 0 0 0-.3 2.9v12zm35.8 14.3a17.2 17.2 0 0 0-.4-1.9l-2.3-10.4a1.2 1.2 0 0 1 .5-1.6 3.7 3.7 0 0 0 1.4-2.1 7.4 7.4 0 0 0 .3-2.4V131a6.7 6.7 0 0 0-.1-1.6 4 4 0 0 0-3.9-3.6 7.4 7.4 0 0 0-1.2-.1h-7c-1.1 0-1.1 0-1.1 1.1v30.5c-.1.7.2.9.8.8h2.3c1 0 1 0 1-1v-10.9c0-1.1 0-1.1 1.4-1.2h.4c.7 0 1 .3 1.1 1l.6 2.4 1.8 8.5c.3 1.2.3 1.3 1.7 1.3a10.4 10.4 0 0 0 2.7-.2zm72.9-8.4v3a1.7 1.7 0 0 1-1.8 1.7h-1c-1.2-.2-1.6-.6-1.6-1.7v-1.2c0-.5-.3-.7-.8-.7-1.2.1-2.4-.2-3.5.3a10.2 10.2 0 0 0 .2 3.6 4.4 4.4 0 0 0 4.2 3.7h2.8c4.4.2 5.8-2 5.8-5.7V147c0-3.5-.2-3.9-3.2-5.6l-4.4-2.4a2.1 2.1 0 0 1-1.1-2v-5.1c0-1.5.5-2 2-2 1.7 0 2.2.5 2.4 2 0 .9-.5 2 .3 2.6.6.5 1.7.1 2.6.2h.7c.6 0 .7-.3.7-.8a21.6 21.6 0 0 0-.2-4 4.3 4.3 0 0 0-4-3.9 21.2 21.2 0 0 0-4.4 0c-2.8.2-4.4 1.7-4.5 4.6v8.3a3.4 3.4 0 0 0 2 3.2l1.3.8 4.4 2.4a2.1 2.1 0 0 1 1.1 2 15 15 0 0 0 0 2.4zm-129.6-7.5v15.4c0 .5.2.7.7.7h1.9c1.9 0 1.7.2 1.7-1.7v-9c0-1 0-1 1-1H97c3.1-.1 4.8-1.8 5-4.8v-10.3a13.3 13.3 0 0 0 0-1.6 4.2 4.2 0 0 0-4.1-4c-2.8-.2-5.5 0-8.2 0-.6 0-.8.3-.8.8v15.5zm45.4 41.3v9.8a19 19 0 0 0 .2 2.6 4.2 4.2 0 0 0 4.1 3.8 30.2 30.2 0 0 0 4.7 0 4.2 4.2 0 0 0 4.1-3.8 11.9 11.9 0 0 0 .1-1.4c.1-2.9.3-2.4-2.2-2.4-1.9 0-1.9 0-2 1.8v.3c-.2 1.1-.7 1.5-1.8 1.6h-1c-1.2 0-1.7-.5-1.8-1.8a5.9 5.9 0 0 1 0-1v-19a10.4 10.4 0 0 1 0-1.4 1.4 1.4 0 0 1 .7-1.1 3.5 3.5 0 0 1 2.8-.2c1 .3 1 1.1 1 1.9v2.3c0 .5.2.9.8.9h3a.5.5 0 0 0 .5-.6 31.9 31.9 0 0 0 0-4.9 4.1 4.1 0 0 0-4-3.6 24 24 0 0 0-5 0 4 4 0 0 0-3.9 3.5 14 14 0 0 0-.2 2.8v9.9zm96.6-41.6V157c0 1.2 0 1.3 1.2 1.3h6.9c2.8 0 2.8 0 2.7-2.8 0-1 0-1-1.1-1H236c-.7 0-1-.3-1-1v-9.1c0-.6.2-.8.8-.8h2.2c2.9 0 2.9 0 2.8-3 0-.7-.3-1-1-1H236c-.6 0-.9-.2-.9-.8v-8.2c0-.6.3-.8.8-.8h2.8c3 0 3 0 2.9-3 0-.8-.3-1-1-1h-8.8c-.7 0-1 .2-1 1V141.7zM185 167.3a1.5 1.5 0 0 0 .2 1l4.6 17.9a12.7 12.7 0 0 1 .4 3v9.4c0 .7.2 1 1 1h2.1c1.2 0 1.3 0 1.3-1.2v-9.2a10.6 10.6 0 0 1 .3-2.8l4.4-17.3a3.4 3.4 0 0 0 .3-1.8 25 25 0 0 0-3 0c-.9-.1-1.2.2-1.4 1l-2 10a9.4 9.4 0 0 1-.8 2.8l-1-4-2-8.9c-.2-.5-.2-1-.9-1a16.5 16.5 0 0 0-3.5 0zm-14.2 18v13.6c0 .5.3.7.8.7h2c1.8 0 1.6 0 1.6-1.6v-26.3c0-.4.2-.7.8-.6h.7c.9 0 2 .3 2.5-.3s.2-1.7.2-2.5c0-1 0-1.1-1-1.1h-10.6c-1 0-1 0-1 1v1.6c0 1.2 0 1.2 1 1.2h1.8c1.3 0 1.3 0 1.3 1.3v13zm26.3-43.3v13c0 1-.5 2.3.2 3 .7.7 2.1.1 3.2.2.6 0 1-.1.9-.8v-31c0-.5-.3-.7-.8-.6h-2.8c-.5 0-.8.1-.8.8V142zm-37.4 41.5v-13.2c0-1 .4-2.2-.2-2.8-.7-.8-2-.3-3-.3-1.1 0-1.1 0-1.1 1.1v30.1c0 1.2 0 1.2 1.1 1.3h1.2c2.3 0 2 .2 2-2v-14.2zm-31 43.8a3 3 0 0 0-.4-.4 78 78 0 0 1-8.8-6.1 3.4 3.4 0 0 0-.5-.4.4.4 0 0 0-.4 0 .3.3 0 0 0 0 .6.8.8 0 0 1 .1.2c1 1.4 1 1.4 0 2.6a311 311 0 0 1-4.2 5.4c-1 1.2-1.1 1.2-2.5.4-.3-.1-.6-.4-.9 0-.4.4.1.5.4.7l.3.3a87 87 0 0 0 10.4 7.2l.8.4c.3.2.5.2.7-.2l1.6-2.6c.1-.3.1-.5-.1-.6s-.5-.4-.8-.1a5.3 5.3 0 0 1-.7.5 3 3 0 0 1-2.5.5 11.1 11.1 0 0 1-4-2.4 1 1 0 0 1 0-1.6c.5-.9 1-1.7 1.7-2.5.1-.2.3-.5.6-.3a9.5 9.5 0 0 1 2 1.4 1.1 1.1 0 0 1 .2 1.4c-.1.3 0 .5.4.6.3.2.5 0 .7-.2l1.5-2.4c.1-.3.3-.6 0-.8a.6.6 0 0 0-1 0 1 1 0 0 1-.8.4 5.5 5.5 0 0 1-2.4-1.4c0-.7.6-1 .8-1.5l.2-.4c1.3-1.7 1.3-1.7 3.2-.5 1.4.9 2.8 1.7 2.3 3.8 0 .3.2.5.5.6s.5-.1.6-.4zM109 212l2 2.2c.9 1 1.5 2 .8 3.5a.7.7 0 0 0 .3.8c.3.3.5 0 .7-.2l1-1c.8-1 .8-.8 0-1.7a73.8 73.8 0 0 1-6.8-7.7 6.5 6.5 0 0 0-.5-.7c-.2-.2-.4 0-.5 0a.3.3 0 0 0-.1.4 3.6 3.6 0 0 0 .2.5c.5 1.2.5 1.4-.5 2.2l-5.3 4.1c-1.5 1.2-1.6 1.2-3-.1-.2-.2-.4-.6-.7-.2-.3.3 0 .5 0 .7a72.3 72.3 0 0 0 4.8 5.8c.2.3.5 1 1 .5.5-.4-.2-.7-.4-1-.8-1.2-.7-1.6.3-2.6l2-1.7c.3-.2.5-.4.8-.1a7.8 7.8 0 0 1 1.4 1.7 1.2 1.2 0 0 1-.2 1.4c-.2.3 0 .6.3.8.4.3.6 0 .8-.2l1.9-1.8c.2-.2.6-.4.2-.9a.7.7 0 0 0-.9-.1 1 1 0 0 1-1.3-.2 14 14 0 0 1-1.3-1.4.5.5 0 0 1 0-.7l3-2.3zm98.8 24.9c-.5 0-.8-.2-.9-.6 0-.6-.5-1.3.2-1.9l3.9-2.4c.4-.3 2 .5 2.2 1a.6.6 0 0 1-.2.6 6.7 6.7 0 0 1-.6.6c-.3.1-.5.3-.2.7.2.2.4.1.6 0a63.6 63.6 0 0 0 5.7-4.2c.2-.1.3-.3 0-.6a.3.3 0 0 0-.4 0c-1.2.8-2.3.2-3.4-.3-2.7-1.3-5.3-2.7-8-4.2-.5-.3-1-1.2-1.8-.6-.7.5-.3 1.4-.2 2 .4 2.8.6 5.6.8 8.4 0 1.3.2 2.7-1.2 3.7a.3.3 0 0 0 0 .5.4.4 0 0 0 .5.2l4.3-2.5a.3.3 0 0 0 .2-.4.4.4 0 0 0-.5-.3 9 9 0 0 0-1 .3zm-75.4 4.5l.8 1.1c1.8 2.1 5 3.1 7.2 2.2 2.3-1 2.9-3 1.3-4.9a21.8 21.8 0 0 0-3-2.8 14 14 0 0 1-1.6-1.7 1.6 1.6 0 0 1-.3-1.7 1.5 1.5 0 0 1 1.8-.7 3.8 3.8 0 0 1 3 2.6l.4 1.2a.6.6 0 0 0 .7.5.5.5 0 0 0 .4-.5l.7-2.2c.1-.5-.5-1-.8-.6-.7.8-.8.3-1.3-.2a5 5 0 0 0-5.5-1.7 2.9 2.9 0 0 0-1.9 4.3 10.1 10.1 0 0 0 2.4 2.8l2 1.9a1.5 1.5 0 0 1 .5 2 1.8 1.8 0 0 1-2 .8 4.3 4.3 0 0 1-4-3.9 6 6 0 0 1 0-1 .8.8 0 0 0-.8-.8c-.3 0-.5.2-.6.5l-1 2.4c-.1.3-.4.6 0 .9a.7.7 0 0 0 1 0 6 6 0 0 1 .6-.5zM231 215a4 4 0 0 1-.7 2.2 14.6 14.6 0 0 1-1.9 2.5c-1.1 1.2-1.6 1.2-2.8.1l-4.8-4.5c-1-.9-1.4-1.3-.4-2.5.2-.3.4-.5 0-.8-.3-.3-.5.1-.7.3-1.4 1.5-2.7 3-4.2 4.4l-.3.3c0 .2-.2.4 0 .5a.3.3 0 0 0 .5.1l.3-.2c1.4-.8 1.4-.8 2.5.3l4.2 4.3c.5.5 1.3 1 1.4 1.7s-.5 1.2-1 1.7a.4.4 0 0 0 .1.6.4.4 0 0 0 .5 0 7.3 7.3 0 0 1 .8-.7c2.1-2.1 4.2-4.3 6.1-6.7l2.8-3.5c.5-.6.4-1-.2-1.4-.5-.4-1-.9-1.6-1.2-.4-.2-.6-.8-1.1-.4-.5.4-.4.8 0 1.3a1.9 1.9 0 0 1 .5 1.6zm-66.5 23.6c.1-2 .2-1.7-1.7-1.8a83.6 83.6 0 0 1-9.6-1c-.8 0-1.7-.6-2.4-.1-.6.5-.4 1.5-.7 2.3 0 .3-.2.7.3.9s.6-.1.8-.5a2 2 0 0 1 2.5-1.4 6 6 0 0 0 1 .1c1.2.2 1.3.2 1.2 1.5l-1 7.4c-.1 1.3-.3 1.5-1.9 1.6-.3 0-.6 0-.6.4s.3.5.6.5c2.2.2 4.5.6 6.8.7.3 0 .7 0 .7-.4s-.3-.4-.6-.5c-1.6-.4-1.7-.5-1.5-2.2l.5-6.9c.1-1.5.1-1.5 1.7-1.4h.6a2.3 2.3 0 0 1 2.2 1.8l.2.4c0 .3.3.4.5.4.4 0 .5-.2.6-.5a4.2 4.2 0 0 1-.2-1.3zm29.1 2a81 81 0 0 1-5.4-4.6c-1-1-1-1.2.3-2 .3-.1.6-.2.4-.6-.1-.3-.4-.2-.7-.2-1.4.5-2.8 1-4.2 1.3a17.5 17.5 0 0 1-1.7.4.5.5 0 0 0-.3.4.3.3 0 0 0 .4.3c1.4-.3 2.1.7 3 1.6a96.2 96.2 0 0 0 7 7c1.2 1 1.8.8 2.1-.7a1.7 1.7 0 0 0 0-.5c.6-3 .9-6.2 1.1-9.3 0-1.1 0-2.3 1.2-3v-.6a.4.4 0 0 0-.5-.2l-4.1 1.9a.3.3 0 0 0-.2.5.4.4 0 0 0 .5.2l.5-.1c1-.1 1.3 0 1.3 1a40 40 0 0 1-.6 7.2zm-21.8 8.5a79.3 79.3 0 0 0 6.7-.8c.2 0 .4 0 .3-.4a.5.5 0 0 0-.4-.5l-.8.1c-1 0-1.3-.2-1.4-1.3l-.3-2-.8-5.5c-.1-1.2 0-1.3 1-1.8a1.1 1.1 0 0 1 .5-.1.4.4 0 0 0 .3-.4c0-.3-.3-.5-.5-.4l-6.1.7c-.3.1-.5.2-.4.5s.3.3.5.4c1.6.4 1.6.4 1.8 2l.6 6.2c.2 1.9.2 1.9-1.7 2.5h-.1c-.3.1-.3.2-.4.5 0 .3.2.4.5.4zM122.4 187h2.6c2.7 0 2.3.5 2.4-2.4 0-1.1 0-1.1-1.3-1.1h-6.2c-3 0-2.4-.6-2.5 2.7 0 .7.4.9 1 .8zm85.5 0h2.5c3 0 2.4.6 2.5-2.6 0-1 0-1-1-1h-6.4c-2.7 0-2.7 0-2.5 2.7 0 .7.3 1 1 .8l3.9.1z"/><path id="Tracé_5" data-name="Tracé 5" class="cls-1" d="M453.6 451.8a2 2 0 0 1-2 2 1.9 1.9 0 0 1-2-2 2 2 0 0 1 2-2 2 2 0 0 1 2 2z" transform="translate(-174.5 -175)"/><path id="Tracé_6" data-name="Tracé 6" class="cls-1" d="M83.5 81.7a2 2 0 1 1-2-2 2 2 0 0 1 2 2z" transform="translate(-30.7 -31.3)"/><path id="Tracé_7" data-name="Tracé 7" class="cls-1" d="M451.6 79.7a2 2 0 0 1 2 2 2 2 0 0 1-2 1.9 1.8 1.8 0 0 1-1.9-2 2 2 0 0 1 1.9-1.9z" transform="translate(-174.5 -31.3)"/><path id="Tracé_8" data-name="Tracé 8" class="cls-1" d="M83.5 451.9a2 2 0 1 1-2-2 2 2 0 0 1 2 2z" transform="translate(-30.7 -175.1)"/><path id="Tracé_9" data-name="Tracé 9" class="cls-1" d="M293 224.7v-11c0-1.1 0-1.2 1.2-1.2h2a1.8 1.8 0 0 1 1.8 1.7 7.4 7.4 0 0 1 0 1.2v19.5c0 1.9-.3 2.2-2.2 2.2h-1.4c-1.3 0-1.3 0-1.3-1.2v-10.3a3.8 3.8 0 0 1-.1-.9z" transform="translate(-113.6 -82.9)"/><path id="Tracé_10" data-name="Tracé 10" class="cls-1" d="M262 219.4v4.7c0 1.1 0 1.1-1.2 1.1h-3c-.6 0-.9-.1-.9-.8v-10c0-1.3.6-1.8 1.9-1.8h.1c2.5-.1 3 .3 3 2.7v4.1z" transform="translate(-99.6 -83)"/><path id="Tracé_11" data-name="Tracé 11" class="cls-1" d="M191 219.5v4.8c0 .7-.2 1-.9 1a28.6 28.6 0 0 0-3.2 0c-.7 0-.9-.3-.9-.9v-9.8c0-1.4.6-2 2-2h.4c2.2 0 2.6.4 2.6 2.5v4.4z" transform="translate(-72 -83)"/><path id="Tracé_12" data-name="Tracé 12" class="cls-1" d="M222 218.4v-4.5c0-1.2 0-1.2 1.2-1.2h1.8a1.6 1.6 0 0 1 1.6 1.3 2.7 2.7 0 0 1 .1 1v7a6 6 0 0 1 0 1 1.7 1.7 0 0 1-1.7 1.4h-2.2c-.7 0-.9-.2-.9-.8v-5.2z" transform="translate(-86 -83)"/><path id="Tracé_13" data-name="Tracé 13" class="cls-1" d="M151.9 219v-5.2c0-1.2 0-1.2 1.2-1.3h1.6a1.5 1.5 0 0 1 1.6 1.5 4.3 4.3 0 0 1 0 .8v8c0 2-.4 2.5-2.4 2.5-2.5 0-2 .2-2.1-2.1v-4.3z" transform="translate(-58.7 -82.9)"/><path id="Tracé_14" data-name="Tracé 14" class="cls-1" d="M340.8 377.3a36.7 36.7 0 0 1-3.4 2.2c-.5-1.4-.4-2.9-.7-4.6l4.1 2.4z" transform="translate(-130.6 -146)"/></g></svg>