<svg viewBox="0 0 46 46" xmlns="http://www.w3.org/2000/svg"><path d="M0 38.28V7.79C.14 7.2.22 6.59.41 6A8.46 8.46 0 0 1 6.33.33C6.81.19 7.3.11 7.79 0h30.42c.51.12 1 .2 1.53.35a8.41 8.41 0 0 1 5.91 5.92c.15.47.24 1 .35 1.45v30.56c-.12.5-.21 1-.36 1.49a8.43 8.43 0 0 1-5.83 5.87c-.5.15-1 .24-1.53.36H7.72a1.22 1.22 0 0 0-.17-.07 8.27 8.27 0 0 1-3.33-1.15A8.4 8.4 0 0 1 .34 39.7c-.13-.47-.23-.94-.34-1.42zm36.78-18.89H32v-3.75a1.21 1.21 0 0 1 1.22-1.35c1.15-.1 2.3-.07 3.45-.1h.54V8.87h-5.24a14.89 14.89 0 0 0-2.4.23 5.37 5.37 0 0 0-3.51 1.9 6.27 6.27 0 0 0-1.26 3.54c-.09 1.45-.07 2.91-.09 4.37v.46h-2.79v4.84c0 .52 0 .52.51.52h2.27v15.95h7.2V24.77h4c.25 0 .36-.07.39-.34.1-1 .22-2.07.33-3.1.03-.62.09-1.25.16-1.94z"/><path d="M36.78 19.39c-.07.69-.13 1.32-.2 1.95-.11 1-.23 2.06-.33 3.1 0 .27-.14.34-.39.34h-4v15.9H24.7V24.77h-2.27c-.51 0-.51 0-.51-.52v-4.84h2.79v-.46c0-1.46 0-2.92.09-4.37A6.27 6.27 0 0 1 26.06 11a5.37 5.37 0 0 1 3.43-1.95 14.89 14.89 0 0 1 2.4-.23h5.24v5.32h-.54c-1.15 0-2.3 0-3.45.1a1.21 1.21 0 0 0-1.14 1.4v3.75z" fill="#fff"/></svg>