<svg viewBox="0 0 86.635 135.682" xmlns="http://www.w3.org/2000/svg"><g transform="translate(-687.913 -847.674)"><path d="M738.863 854.32s-9.2-1.979-10.669 5.676 2.862 9.746 2.862 9.746-2.613 8.816 2.776 12.6a10.312 10.312 0 0 0 10.63.793s6.55 6.373 12.707 1.281 3.833-9.785 3.833-9.785 7.193-4.656 5.521-10.834-8.825-7.221-8.825-7.221-1.677-9.072-9.131-8.9a10.55 10.55 0 0 0-9.704 6.644z" fill="#f2b597"/><ellipse cx="741.184" cy="908.595" fill="#f2b597" rx="33.365" ry="11.652"/><path d="M774.549 908.13v54.971s-11.169 8.529-34.544 8.471-40.772 0-40.772 0v-50.594h8.864v-11.939s55.394-.656 55.394 7.686" fill="#f2b597"/><g fill="none" stroke="#646086" stroke-width="5"><ellipse cx="732.366" cy="917.414" rx="33.365" ry="11.652"/><ellipse cx="733.494" cy="917.626" rx="14.195" ry="5.085"/><path d="M699.001 916.731v13.336"/><path d="M765.73 917.414v54.971s-11.169 8.529-34.544 8.471-40.772 0-40.772 0v-50.594h40.772v42.619"/><path d="M697.151 887.969l16.917.842s8.026 6.818 6.5 9.979-11.4 1.736-11.4 1.736z"/><path d="M731.347 912.999a42.419 42.419 0 0 1 1.018-22.979"/><path d="M732.366 859.89s-9.2-1.979-10.669 5.676 2.862 9.746 2.862 9.746-2.613 8.816 2.776 12.6a10.312 10.312 0 0 0 10.63.793s6.55 6.373 12.707 1.281 3.833-9.785 3.833-9.785 7.193-4.656 5.521-10.834-8.825-7.221-8.825-7.221-1.677-9.072-9.131-8.9a10.55 10.55 0 0 0-9.704 6.644z"/><ellipse cx="741.007" cy="873.041" rx="7.658" ry="7.658" stroke="none"/><ellipse cx="741.007" cy="873.041" rx="5.158" ry="5.158"/></g></g></svg>