<svg viewBox="0 0 136.515 139.395" xmlns="http://www.w3.org/2000/svg"><path d="M55.068 43.385s14.9 12.327 14.9 20.384a14.589 14.589 0 0 1-29.178 0c0-8.057 14.278-20.384 14.278-20.384z" fill="#94ccd2"/><path d="M71.704 26.109s7.821 6.47 7.821 10.7a7.657 7.657 0 0 1-7.658 7.657 7.657 7.657 0 0 1-7.657-7.658c0-4.229 7.494-10.699 7.494-10.699z" fill="#94ccd2"/><path d="M88.401 46.072s10.42 8.621 10.42 14.256a10.2 10.2 0 0 1-10.2 10.2 10.2 10.2 0 0 1-10.206-10.2c0-5.635 9.986-14.256 9.986-14.256z" fill="#94ccd2"/><g fill="none" stroke="#646086" stroke-width="5"><path d="M45.934 12.053L14.757 36.158c0-.051-4.583 37.1-4.583 37.1l-8.505-7.633"/><path d="M111.835 72.913l-5.287-39.053c.045.026-29.838-22.519-29.838-22.519l10.862-3.55"/><path d="M25.877 98.624l36.46 14.95c-.044.026 34.421-14.58 34.421-14.58l-2.352 11.179"/><path d="M46.25 49.42s14.9 12.327 14.9 20.384a14.589 14.589 0 0 1-29.178 0c0-8.057 14.278-20.384 14.278-20.384z" stroke-linejoin="round"/><path d="M62.885 32.143s7.821 6.47 7.821 10.7a7.657 7.657 0 0 1-7.658 7.657 7.657 7.657 0 0 1-7.657-7.658c0-4.229 7.494-10.699 7.494-10.699z" stroke-linejoin="round"/><path d="M79.583 52.107s10.42 8.621 10.42 14.256a10.2 10.2 0 0 1-10.2 10.2 10.2 10.2 0 0 1-10.206-10.2c0-5.635 9.986-14.256 9.986-14.256z" stroke-linejoin="round"/><path d="M10.654 76.924l9.3-9.645"/><path d="M73.295 9.923L77 22.8"/><path d="M99.698 96.744l-13.004-3.231"/></g></svg>