<svg xmlns="http://www.w3.org/2000/svg" viewBox="0 0 123.208 121.99"><defs><style>.a,.c{fill:none;stroke:#646086;stroke-width:5px}.b{fill:#f2b597}.c{stroke-linejoin:round}</style></defs><path class="a" d="M0 20.045h10.032"/><path class="a" d="M0 35.359h10.032"/><path class="a" d="M0 50.676h10.032"/><path class="a" d="M0 65.992h10.032"/><path class="b" d="M27.778 79.73l-7.534 16.781c0-.055 18.8 18.8 18.8 18.8l18.08-18.8-7.783-16.781V11.457l-10.3-10.031-11.269 10.031z"/><path class="b" d="M123.208 54.291h-7.641l-6.712-7.312-7.626 2.967h-6.647L81.708 36.809h-17.29v-9.811l7.174-6.881h7.776l5.977-4.812c-.028-.029 11.844 0 11.844 0l6.316-5.324"/><path class="b" d="M62.857 60.771v-6.365l6.343-7.414c0 .018 12.21 0 12.21 0l14.444 12.922v15.047l-11.08 10.908h-6.9V68.098l-8.243-7.326z"/><path class="c" d="M20.352 83.906l-7.534 16.781c0-.055 18.8 18.8 18.8 18.8l18.08-18.8-7.783-16.781V15.633l-10.3-10.031-11.269 10.031z"/><path class="a" d="M31.26 25.41v75.146"/><path class="c" d="M50.166 3.148s38.262-6.07 56.579 22.4 6.528 53.414-4.46 65.824a52.657 52.657 0 0 1-43.947 16.887"/><path class="c" d="M115.782 58.469h-7.641l-6.712-7.312-7.626 2.967h-6.647L74.282 40.987h-17.29v-9.811l7.174-6.881h7.776l5.977-4.812c-.028-.029 11.844 0 11.844 0l6.316-5.324"/><path class="c" d="M55.431 64.946v-6.365l6.343-7.414c0 .018 12.21 0 12.21 0l14.444 12.922v15.047l-11.08 10.908h-6.9V72.273l-8.243-7.326z"/></svg>