<svg viewBox="0 0 119.28 115.9" xmlns="http://www.w3.org/2000/svg"><path d="M33.252 23.074s22.889 26.458 22.889 43.751S46.107 98.139 33.73 98.139s-22.411-14.02-22.411-31.314 21.933-43.751 21.933-43.751z" fill="#fcdd86"/><path d="M47.467 30.755l14.5-23.834 14.906 23.834" fill="#fcdd86"/><path d="M57.59 93.144h46.034s15.465-2.211 15.655-21.375-19.7-17.672-19.7-17.672-4.99-18.068-21.743-17.6-18.2 17.6-18.2 17.6" fill="#fcdd86"/><ellipse cx="101.607" cy="11.603" fill="#fcdd86" rx="11.603" ry="11.603"/><g fill="none" stroke="#646086" stroke-width="5"><path d="M24.433 29.109S47.322 55.567 47.322 72.86s-10.034 31.314-22.411 31.314S2.5 90.154 2.5 72.86s21.933-43.751 21.933-43.751z" stroke-linejoin="round"/><path d="M24.698 115.9V57.355"/><path d="M70.182 115.9V57.355"/><path d="M13.445 75.915l11.171 12.934"/><path d="M58.929 75.915L70.1 88.849"/><path d="M24.698 75.918l8.886-9.082"/><path d="M70.182 87.054l8.886-9.082"/><path d="M38.649 36.789l14.5-23.834 14.906 23.834"/><path d="M48.772 99.175h46.034s15.465-2.211 15.655-21.375-19.7-17.672-19.7-17.672-4.99-18.068-21.743-17.6-18.2 17.6-18.2 17.6"/><ellipse cx="92.789" cy="17.636" rx="11.603" ry="11.603"/></g></svg>