<svg viewBox="0 0 92.589 88.018" xmlns="http://www.w3.org/2000/svg"><path d="M7.605 43.388l21.439 30.117h41.719l21.824-30.117z" fill="#f2b597"/><path d="M88.916 35.15l-3.421-8.207-9.171-2.98-6.657-9.02c0-.025-9.468 1.26-9.468 1.26l-9.56-6-9.811 4.744h-9.273l-6.331 7.613-7.594 3.01-6.389 9.58z" fill="#f2b597"/><g fill="none" stroke="#646086" stroke-width="5"><path d="M2.499 48.492l21.439 30.117h41.719l21.824-30.117z" stroke-linejoin="round"/><path d="M23.91 78.609l5.012 6.908h32.117l4.855-6.908z" stroke-linejoin="round"/><path d="M17.348 55.336l9.766 15.279V55.336z" stroke-linejoin="round"/><path d="M3.768 40.258v8.361h81.976v-8.361z" stroke-linejoin="round"/><path d="M83.811 40.255l-3.421-8.207-9.171-2.98-6.657-9.02c0-.025-9.468 1.26-9.468 1.26l-9.56-6-9.811 4.744H26.45l-6.331 7.613-7.594 3.01-6.389 9.58z" stroke-linejoin="round"/><path d="M66.762 23.724L84.397 2.499l4.981 4.188-16.723 23.186" stroke-linejoin="round"/><path d="M38.864 25.681v3.434"/><path d="M32.366 31.716v3.434"/><path d="M45.361 31.716v3.434"/><path d="M58.357 31.716v3.434"/><path d="M51.859 25.681v3.434"/></g></svg>