<svg viewBox="0 0 449 449" xmlns="http://www.w3.org/2000/svg"><clipPath id="a"><path d="M0 0h449v449H0z"/></clipPath><g clip-path="url(#a)"><rect fill="#94ccd2" height="323" rx="51" transform="translate(220 75)" width="158"/><path d="M237.882 95.17s-19.819-4.264-22.987 12.23 6.166 21 6.166 21-5.631 19 5.981 27.148a22.214 22.214 0 0 0 22.9 1.711s14.112 13.732 27.378 2.764 8.258-21.084 8.258-21.084 15.5-10.033 11.9-23.346-19.014-15.561-19.014-15.561-3.613-19.545-19.675-19.182a22.734 22.734 0 0 0-20.907 14.32z" fill="#f2b597"/><ellipse cx="71.889" cy="25.106" fill="#f2b597" rx="71.889" ry="25.106" transform="translate(170.993 187)"/><path d="M314.77 211.105v118.441s-24.065 18.377-74.431 18.25-87.849 0-87.849 0v-109.01h19.1v-25.725s119.354-1.414 119.354 16.561" fill="#f2b597"/><g fill="none" stroke="#646086" stroke-width="10"><ellipse cx="71.889" cy="25.106" rx="71.889" ry="25.106" transform="translate(151.993 206)"/><ellipse cx="30.584" cy="10.956" rx="30.584" ry="10.956" transform="translate(195.728 220.607)"/><path d="M151.993 229.633v28.732m143.777-27.26v118.441s-24.065 18.377-74.431 18.25-87.849 0-87.849 0v-109.01h87.849v91.83m-73.333-182.954l36.449 1.811s17.293 14.689 14.006 21.5-24.574 3.74-24.574 3.74zm73.683 53.932a91.393 91.393 0 0 1 2.193-49.51"/><path d="M223.882 107.17s-19.819-4.264-22.987 12.23 6.166 21 6.166 21-5.631 19 5.981 27.148a22.214 22.214 0 0 0 22.9 1.711s14.112 13.732 27.378 2.764 8.258-21.084 8.258-21.084 15.5-10.033 11.9-23.346-19.014-15.561-19.014-15.561-3.613-19.545-19.675-19.182a22.734 22.734 0 0 0-20.907 14.32z"/><g transform="translate(226 119)"><circle cx="16.5" cy="16.5" r="16.5" stroke="none"/><circle cx="16.5" cy="16.5" r="11.5"/></g></g></g></svg>