<svg viewBox="0 0 449 449" xmlns="http://www.w3.org/2000/svg"><clipPath id="a"><path d="M0 0h449v449H0z"/></clipPath><g clip-path="url(#a)"><rect fill="#f2b597" height="141" rx="51" transform="rotate(90 90 134.5)" width="360"/><path d="M138.947 156.754l-7.693 5.795v55.652l6.121 9.2h25.2l9.728 56.5 24.757-15.834-3.312-40.664h37s93.475 51.879 93.68 52.33 19.086 0 19.086 0l-1.613-176.119h-17.474s-57.17 53.723-115.2 54.84-70.28-1.7-70.28-1.7z" fill="#fcdd86"/><g fill="none" stroke="#646086" stroke-width="10"><path d="M143.652 249.219s6.37 95.939 23.639 96.41 30.414 0 30.414 0l5.285-8.551-13.107-19.719-3.4-68.141h-61.119l-6.024-4.945v-59.766l6.024-5.754h72.338l.255 2 8.22 64.539s85.631 28.316 106.493 57.047" stroke-linejoin="round"/><path d="M197.621 178.754s78.418-15.33 114.916-52.207"/><path d="M312 126h18v177h-18z" stroke-linejoin="round"/><path d="M100 194h18v36h-18z" stroke-linejoin="round"/><path d="M330 186.02s18.495 5.936 18.592 28.549S330 239.756 330 239.756"/></g></g></svg>