<svg viewBox="0 0 449 449" xmlns="http://www.w3.org/2000/svg"><clipPath id="a"><path d="M0 0h449v449H0z"/></clipPath><g clip-path="url(#a)"><rect fill="#f2b597" height="185" rx="51" transform="translate(40 80)" width="185"/><path d="M216.764 177.131s32.1 26.559 32.1 43.92a31.434 31.434 0 0 1-62.864 0c0-17.36 30.764-43.92 30.764-43.92z" fill="#94ccd2"/><path d="M252.608 139.906s16.853 13.941 16.853 23.053a16.5 16.5 0 0 1-33 0c0-9.112 16.147-23.053 16.147-23.053z" fill="#94ccd2"/><path d="M288.582 182.922s22.453 18.575 22.453 30.716a21.984 21.984 0 0 1-43.968 0c0-12.141 21.515-30.716 21.515-30.716z" fill="#94ccd2"/><g fill="none" stroke="#646086" stroke-width="10"><path d="M197.084 109.621l-67.174 51.938c0-.109-9.874 79.939-9.874 79.939l-18.326-16.443"/><path d="M339.077 240.75l-11.393-84.143c.094.055-64.292-48.52-64.292-48.52l23.403-7.65"/><path d="M153.868 296.153l78.567 32.206c-.094.054 74.166-31.419 74.166-31.419l-5.077 24.093"/><path d="M197.764 190.131s32.1 26.559 32.1 43.92a31.434 31.434 0 0 1-62.864 0c0-17.36 30.764-43.92 30.764-43.92z" stroke-linejoin="round"/><path d="M233.608 152.906s16.853 13.941 16.853 23.053a16.5 16.5 0 0 1-33 0c0-9.112 16.147-23.053 16.147-23.053z" stroke-linejoin="round"/><path d="M269.582 195.922s22.453 18.575 22.453 30.716a21.984 21.984 0 0 1-43.968 0c0-12.141 21.515-30.716 21.515-30.716z" stroke-linejoin="round"/><path d="M121.067 249.4l20.038-20.783"/><path d="M256.033 105.03l7.98 27.746"/><path d="M312.927 292.097l-28.018-6.962"/></g></g></svg>