<svg viewBox="0 0 449 449" xmlns="http://www.w3.org/2000/svg"><clipPath id="a"><path d="M0 0h449v449H0z"/></clipPath><g clip-path="url(#a)"><rect fill="#f2b597" height="152" rx="51" transform="translate(40 264)" width="317"/><path d="M164.719 149.72s49.317 57.006 49.317 94.268-21.619 67.469-48.287 67.469-48.288-30.207-48.288-67.469 47.258-94.268 47.258-94.268z" fill="#fcdd86"/><path d="M195.348 166.27l31.234-51.354 32.117 51.354m-41.54 134.43h99.187s33.321-4.768 33.731-46.055-42.455-38.08-42.455-38.08-10.75-38.93-46.849-37.918-39.223 37.918-39.223 37.918" fill="#fcdd86"/><circle cx="25" cy="25" fill="#fcdd86" r="25" transform="translate(287 100)"/><g fill="none" stroke="#646086" stroke-width="10"><path d="M145.719 162.72s49.317 57.006 49.317 94.268-21.619 67.469-48.287 67.469-48.288-30.207-48.288-67.469 47.258-94.268 47.258-94.268z" stroke-linejoin="round"/><path d="M146.289 349.721V223.58"/><path d="M244.289 349.721V223.58"/><path d="M122.042 263.574l24.07 27.869"/><path d="M220.042 263.574l24.07 27.869"/><path d="M146.289 263.574l19.147-19.566"/><path d="M244.289 287.574l19.147-19.566"/><path d="M176.348 179.27l31.234-51.354 32.117 51.354m-41.54 134.43h99.187s33.321-4.768 33.731-46.055-42.455-38.08-42.455-38.08-10.75-38.93-46.849-37.918-39.223 37.918-39.223 37.918"/><circle cx="25" cy="25" r="25" transform="translate(268 113)"/></g></g></svg>