<svg viewBox="0 0 449 449" xmlns="http://www.w3.org/2000/svg"><clipPath id="a"><path d="M0 0h449v449H0z"/></clipPath><g clip-path="url(#a)"><rect fill="#94ccd2" height="323" rx="51" transform="translate(82 63)" width="158"/><path d="M204.616 271.561v-15.939s-1.052-11.838-5.976-18.225-28.748-31.582-28.187-63.686 20.022-51.535 20.022-51.535 16.813-19.748 48.421-20.5" fill="#fcdd86"/><path d="M237.896 101.672c33.708.756 51.638 20.5 51.638 20.5s20.754 19.432 21.352 51.535-24.809 57.3-30.06 63.686-6.372 18.225-6.372 18.225v15.939h-71.825" fill="#fcdd86"/><g fill="none" stroke="#646086" stroke-width="10"><path d="M181.451 292.918h82.163"/><path d="M181.451 316.918h82.163"/><path d="M143.563 265.982l9.749-9.082"/><path d="M112.947 215.937l12.984-2.991"/><path d="M104.4 159.267l12.268 5.214" stroke-width="10.0052"/><path d="M141.19 105.338l10.495 8.208"/><path d="M312.784 101.37l-9.594 9.247" stroke-width="10.0014"/><path d="M334.697 153.164l-12.522 4.55"/><path d="M345.171 210.738l-12.176-5.428" stroke-width="10.0056"/><path d="M311.915 272.154l-9.58-9.266" stroke-width="10.0035"/><path d="M222.533 260.441s-26.6-34.7 3.967-91.463m-14.7 56.907s-21.96-6.859-22.786-23.057 1.142-27.295 11.81-35.113 30.371-29.58 30.188-33.072 31.715 18.75 27.683 53.436-31.175 34.373-31.175 34.373"/><path d="M203.092 334.529l18.938 13.182 17.613-13.182m-53.027-54.968v-15.939s-1.052-11.838-5.976-18.225-28.748-31.582-28.187-63.686 20.022-51.535 20.022-51.535 16.813-19.748 48.421-20.5"/><path d="M256.453 279.561v-15.939s1.121-11.838 6.372-18.225 30.658-31.582 30.06-63.686-21.352-51.535-21.352-51.535-17.93-19.748-51.638-20.5"/></g></g></svg>