<svg viewBox="0 0 449 449" xmlns="http://www.w3.org/2000/svg"><clipPath id="a"><path d="M0 0h449v449H0z"/></clipPath><g clip-path="url(#a)"><rect fill="#fcdd86" height="170" rx="51" transform="translate(203 203)" width="170"/><path d="M138.523 222.76l46.194 64.891h89.89l47.024-64.891z" fill="#f2b597"/><path d="M313.719 205.014l-7.371-17.682-19.761-6.428-14.345-19.422c0-.055-20.4 2.715-20.4 2.715l-20.6-12.937-21.138 10.223h-19.98l-13.64 16.406-16.363 6.482-13.767 20.643z" fill="#f2b597"/><g fill="none" stroke="#646086" stroke-width="10"><path d="M127.523 233.76l46.194 64.891h89.89l47.024-64.891z" stroke-linejoin="round"/><path d="M173.655 298.65l10.8 14.883h69.2l10.462-14.883z" stroke-linejoin="round"/><path d="M159.515 248.506l21.042 32.92v-32.92z" stroke-linejoin="round"/><path d="M130.256 216.014v18.018h176.629v-18.018z" stroke-linejoin="round"/><path d="M302.719 216.014l-7.371-17.682-19.761-6.428-14.345-19.422c0-.055-20.4 2.715-20.4 2.715l-20.6-12.937-21.138 10.223h-19.98l-13.64 16.406-16.363 6.482-13.767 20.643z" stroke-linejoin="round"/><path d="M265.986 180.4l38-45.734 10.733 9.023-36.032 49.955" stroke-linejoin="round"/><path d="M205.875 184.613v7.4"/><path d="M191.875 197.613v7.4"/><path d="M219.875 197.613v7.4"/><path d="M247.875 197.613v7.4"/><path d="M233.875 184.613v7.4"/></g></g></svg>