<svg viewBox="0 0 449 449" xmlns="http://www.w3.org/2000/svg"><clipPath id="a"><path d="M0 0h449v449H0z"/></clipPath><g clip-path="url(#a)"><rect fill="#94ccd2" height="323" rx="51" transform="translate(247 63)" width="158"/><path d="M92.171 137.895h21.615" fill="none" stroke="#646086" stroke-width="10"/><path d="M92.171 170.895h21.615" fill="none" stroke="#646086" stroke-width="10"/><path d="M92.171 203.895h21.615" fill="none" stroke="#646086" stroke-width="10"/><path d="M92.171 236.895h21.615" fill="none" stroke="#646086" stroke-width="10"/><path d="M152.023 266.5l-16.232 36.156c0-.117 40.512 40.512 40.512 40.512l38.957-40.512-16.771-36.156V119.395L176.303 97.78l-24.279 21.615zm205.616-54.818h-16.464l-14.462-15.754-16.432 6.391h-14.323l-27.738-28.3h-37.253v-21.141l15.458-14.824h16.755l12.877-10.369c-.06-.061 25.52 0 25.52 0l13.609-11.471m-87.58 109.432v-13.717l13.667-15.973c0 .039 26.309 0 26.309 0l31.123 27.84v32.424l-23.873 23.5h-14.859v-38.293l-17.762-15.785z" fill="#f2b597"/><g fill="none" stroke="#646086" stroke-width="10"><path d="M136.023 275.5l-16.232 36.156c0-.117 40.512 40.512 40.512 40.512l38.957-40.512-16.771-36.156V128.395l-22.186-21.615-24.279 21.615z" stroke-linejoin="round"/><path d="M159.524 149.453v161.914"/><path d="M200.259 101.484s82.44-13.08 121.907 48.27 14.067 115.088-9.609 141.83-61.6 40.205-94.689 36.383" stroke-linejoin="round"/><path d="M341.639 220.682h-16.464l-14.462-15.754-16.432 6.391h-14.323l-27.738-28.3h-37.253v-21.141l15.458-14.824h16.755l12.877-10.369c-.06-.061 25.52 0 25.52 0l13.609-11.471m-87.58 109.432v-13.717l13.667-15.973c0 .039 26.309 0 26.309 0l31.123 27.84v32.424l-23.873 23.5h-14.859v-38.293l-17.762-15.785z" stroke-linejoin="round"/></g></g></svg>