<svg viewBox="0 0 449 449" xmlns="http://www.w3.org/2000/svg"><clipPath id="a"><path d="M0 0h449v449H0z"/></clipPath><g clip-path="url(#a)"><rect fill="#fcdd86" height="134" rx="51" transform="translate(62 268)" width="323"/><path d="M147 310.5h-13.582s-16.928 1.2-17.847-16.5 0-32.969 0-32.969l5.645-7.83h19.826l37.222-24.7H243.3s32.589 12.791 41.36 24.7 40.655-12.791 67.007 27.049c.072 10.873.064 30.275.064 30.275h.747l-31.725-.023m-33.222-199.311v-6.842H311v62.076h-23.467v-7.447h-14.645l-26.783-25.18" fill="#94ccd2"/><g fill="none" stroke="#646086" stroke-width="10"><circle cx="19.5" cy="19.5" r="19.5" transform="translate(129 306)"/><circle cx="19.5" cy="19.5" r="19.5" transform="translate(264 306)"/><path d="M264 325.5h-95.642m-39.358 0h-13.582S98.49 326.7 97.571 309s0-32.969 0-32.969l5.645-7.83h19.826l37.222-24.7H225.3s32.589 12.791 41.36 24.7 40.655-12.791 67.007 27.049c.072 10.873.064 30.275.064 30.275h.747l-31.725-.023M112.067 251v-16.408s6.437-22.99 25.479-22.93 65.758 0 65.758 0 12.348-3.729 11.842-15.932-11.842-16-11.842-16h-42.739s-12.675-1.469-12.564-15.41 12.564-15.861 12.564-15.861h69.93l18.915-23.889h24.8"/><path d="M269.531 126.191v-6.842H293v62.076h-23.467v-7.447h-14.645l-26.783-25.18M148.5 269.143l10.711 8.875h89.954M293 133.025h36.407"/><path d="M293 165.025h36.407"/><path d="M267.458 138.992v19.6"/></g></g></svg>