<svg viewBox="0 0 449 449" xmlns="http://www.w3.org/2000/svg"><clipPath id="a"><path d="M0 0h449v449H0z"/></clipPath><g clip-path="url(#a)"><rect fill="#fcdd86" height="170" rx="51" transform="rotate(45 -3.625 219.29)" width="170"/><g fill="#94ccd2"><path d="M234.684 154.006l-19.326 25.262-36.066-25.262 33.446-44.562h60.914l22.853 34.59 11.866-8.139-13.664 54.166-51.916-15.178 11.277-7.475-30.3-50.334"/><path d="M295.368 243.678l-13.232-28.924 39.237-19.984 23.644 50.451-28.597 53.784-41.27 3.939 1.615 14.298-41.41-37.494 37.774-38.713 1.306 13.466 58.667-3.123"/><path d="M187.648 255.652l31.797.786.762 44.027-55.71-.866-35.805-49.28 14.551-38.82-13.56-4.816 51.854-20.784 18.236 50.923-12.676-4.73-22.911 54.099"/></g><path d="M213.684 163.006l-19.326 25.262-36.066-25.262 33.446-44.562h60.914l22.853 34.59 11.866-8.139-13.664 54.166-51.916-15.178 11.277-7.475-30.3-50.334" fill="none" stroke="#646086" stroke-linejoin="round" stroke-width="10"/><path d="M274.368 252.678l-13.232-28.924 39.237-19.984 23.644 50.451-28.597 53.784-41.27 3.939 1.615 14.298-41.41-37.494 37.774-38.713 1.306 13.466 58.667-3.123" fill="none" stroke="#646086" stroke-linejoin="round" stroke-width="10"/><path d="M166.648 264.652l31.797.786.762 44.027-55.71-.866-35.805-49.28 14.551-38.82-13.56-4.816 51.854-20.784 18.236 50.923-12.676-4.73-22.911 54.099" fill="none" stroke="#646086" stroke-linejoin="round" stroke-width="10"/></g></svg>